<?xml version="1.0" standalone="no"?>
<!DOCTYPE svg PUBLIC "-//W3C//DTD SVG 20010904//EN"
 "http://www.w3.org/TR/2001/REC-SVG-20010904/DTD/svg10.dtd">
<svg version="1.0" xmlns="http://www.w3.org/2000/svg"
 width="240.000000pt" height="244.000000pt" viewBox="0 0 240.000000 244.000000"
 preserveAspectRatio="xMidYMid meet">
<metadata>
Created by potrace 1.16, written by Peter Selinger 2001-2019
</metadata>
<g transform="translate(0.000000,244.000000) scale(0.100000,-0.100000)"
fill="#000000" stroke="none">
<path d="M986 2424 c-227 -41 -436 -148 -605 -309 -193 -183 -321 -421 -366
-679 -19 -112 -19 -318 0 -429 77 -443 388 -808 806 -948 127 -42 234 -59 379
-59 334 0 607 113 848 352 229 228 352 531 352 868 0 212 -40 383 -133 564
-174 341 -490 576 -861 641 -109 19 -313 18 -420 -1z m417 -135 c199 -40 369
-127 514 -263 112 -105 173 -187 239 -321 174 -355 147 -764 -72 -1102 -62
-96 -236 -260 -338 -320 -419 -246 -921 -191 -1271 139 -406 384 -461 1006
-128 1453 249 334 659 495 1056 414z"/>
<path d="M1325 2091 c-50 -22 -92 -71 -100 -114 -3 -18 -5 -363 -3 -768 l3
-735 27 -42 c15 -22 48 -53 73 -68 39 -22 54 -26 97 -22 45 5 57 11 92 49 l41
43 71 -3 c56 -2 80 2 111 18 76 38 123 114 123 197 0 19 6 34 15 38 25 9 55
69 55 109 0 31 7 43 41 74 22 20 47 49 55 64 17 33 19 122 3 150 -9 17 -6 28
16 59 40 57 54 107 54 185 1 85 -20 136 -76 186 -30 28 -42 46 -47 79 -8 53
-30 96 -69 138 -26 27 -31 39 -28 72 4 58 -15 104 -59 144 -45 40 -107 60
-164 53 -37 -5 -43 -3 -75 35 -64 74 -169 99 -256 59z m171 -115 c45 -45 45
-82 2 -132 -18 -21 -52 -46 -75 -56 -44 -19 -53 -37 -29 -57 21 -18 77 11 153
80 36 33 80 67 96 76 61 31 137 -13 137 -79 0 -75 -68 -161 -160 -202 -44 -20
-60 -32 -58 -44 9 -45 114 -6 191 71 48 47 49 48 74 32 23 -16 53 -70 53 -97
0 -7 -17 -22 -37 -33 -46 -25 -77 -70 -98 -143 -21 -71 -55 -109 -106 -117
-30 -5 -39 -11 -39 -26 0 -25 21 -33 67 -24 57 10 107 69 132 153 32 106 75
136 132 91 49 -38 69 -84 69 -156 0 -48 -6 -68 -28 -104 -16 -24 -31 -52 -35
-62 -14 -37 -93 13 -99 62 -2 20 -8 26 -28 26 -22 0 -25 -4 -23 -34 2 -47 30
-82 91 -111 81 -39 92 -93 31 -144 -35 -30 -92 -43 -124 -28 -37 17 -77 78
-94 145 -13 50 -20 62 -36 62 -17 0 -20 -6 -19 -50 2 -88 73 -190 148 -215 23
-7 37 -20 44 -39 12 -34 7 -43 -33 -62 -29 -14 -30 -17 -35 -92 -5 -73 -7 -81
-38 -108 -27 -25 -41 -29 -87 -29 -49 0 -60 4 -92 34 -35 32 -37 38 -41 104
-5 88 9 133 60 189 42 44 45 73 9 73 -24 0 -78 -61 -104 -119 -26 -57 -28
-175 -4 -238 14 -38 14 -46 0 -83 -18 -45 -49 -60 -88 -42 -51 23 -59 52 -63
228 -3 90 -1 179 2 197 9 49 71 116 133 143 56 25 62 34 38 54 -19 16 -90 -9
-134 -46 -16 -13 -32 -24 -35 -24 -3 0 -6 126 -6 280 0 311 -1 306 64 275 61
-29 70 -55 68 -182 -1 -62 3 -124 8 -138 15 -39 59 -75 91 -75 42 0 38 33 -6
59 -19 11 -36 28 -36 38 -1 10 -2 70 -3 133 -1 88 -5 122 -18 147 -21 37 -70
70 -124 81 l-39 8 0 168 0 168 28 24 c21 18 40 24 74 24 38 0 50 -5 79 -34z"/>
</g>
</svg>
